<?xml version="1.0" encoding="UTF-8"?>
<svg id="Layer_2" data-name="Layer 2" xmlns="http://www.w3.org/2000/svg" viewBox="0 0 260 260">
  <defs>
    <style>
      .cls-1, .cls-2 {
        fill: #e6e6e6;
      }

      .cls-2 {
        fill-rule: evenodd;
      }

      .cls-3 {
        fill: none;
      }
    </style>
  </defs>
  <g id="Layer_1-2" data-name="Layer 1">
    <g>
      <g>
        <path class="cls-1" d="m50.98,96.71c-9.51,0-17.24-9.47-17.24-21.11,0-10.38,6.15-19.04,14.23-20.79.5-2.85-.16-5.75-1.37-8.18-13.18,13.76-30.37,14.85-40.98,15.53l-1.47.09c-1.54.1-2.98-.71-3.7-2.06-.72-1.36-.57-3.01.38-4.21,14.4-18.36,29.29-21.08,40.72-20.24C27.15,28.82,12.32,16.57,8.04,9.12c-.7-1.23-.69-2.74.05-3.95.73-1.21,2.05-1.92,3.48-1.87,32.54,1.26,48,18.24,52.81,29.33,1.99-.22,3.99-.38,5.98-.49.03,0,.07,0,.1,0,9.73-.52,18.71.31,26.68,2.47,2.07.56,3.3,2.7,2.74,4.77-.56,2.07-2.7,3.3-4.77,2.74-4.73-1.28-9.9-2.04-15.42-2.27,2.02,3.04,3.44,6.32,4.34,9.06,2.56.29,5.06,1.3,7.27,2.96,3.89,2.92,6.54,7.6,7.28,12.83,1.4,9.89-4.42,18.93-12.97,20.15-4.28.61-8.54-.79-11.99-3.94-3.24-2.96-5.39-7.15-6.05-11.81-1.15-8.15,2.59-15.71,8.72-18.81-1.32-3.61-3.64-7.86-6.78-10.3-2.4.16-4.8.41-7.18.74,0,0,0,0-.01,0-3.69.51-6.77,1.14-9.12,1.73,2.02,3.73,3.17,8.25,2.57,12.86,7.19,2.54,12.46,10.68,12.46,20.29,0,11.64-7.74,21.11-17.24,21.11Zm-.07-34.45c-5.1.06-9.4,6.14-9.4,13.34s4.34,13.34,9.47,13.34,9.47-6.11,9.47-13.34-4.3-13.28-9.4-13.34c-.05,0-.09,0-.14,0Zm30.67-5.61c-4.29.63-7.13,5.72-6.33,11.36.41,2.87,1.68,5.41,3.59,7.15,1.7,1.55,3.71,2.26,5.66,1.98,4.31-.61,7.16-5.71,6.36-11.36-.45-3.2-2-6.01-4.25-7.7-1.09-.82-2.84-1.73-4.97-1.44-.02,0-.04,0-.06,0Zm-43.52-13.26c-7.48,0-15.96,2.21-24.69,10.33,8.28-.97,17.5-3.26,25.41-10.33-.24,0-.48,0-.71,0ZM20.44,11.92c8.85,8.42,24.62,18.46,35.26,20.72-4.61-7.83-15.37-17.7-35.26-20.72Z"/>
        <rect class="cls-3" width="130" height="130"/>
      </g>
      <g>
        <path class="cls-1" d="m180.98,226.71c-9.51,0-17.24-9.47-17.24-21.11,0-10.38,6.15-19.04,14.23-20.79.5-2.85-.16-5.75-1.37-8.18-13.18,13.76-30.37,14.85-40.98,15.53l-1.47.09c-1.54.1-2.98-.71-3.7-2.06-.72-1.36-.57-3.01.38-4.21,14.4-18.36,29.29-21.08,40.72-20.24-14.41-6.91-29.23-19.15-33.52-26.61-.7-1.23-.69-2.74.05-3.95.73-1.21,2.05-1.92,3.48-1.87,32.54,1.26,48,18.24,52.81,29.33,1.99-.22,3.99-.38,5.98-.49.03,0,.07,0,.1,0,9.73-.52,18.71.31,26.68,2.47,2.07.56,3.3,2.7,2.74,4.77-.56,2.07-2.7,3.3-4.77,2.74-4.73-1.28-9.9-2.04-15.42-2.27,2.02,3.04,3.44,6.32,4.34,9.06,2.56.29,5.06,1.3,7.27,2.96,3.89,2.92,6.54,7.6,7.28,12.83,1.4,9.89-4.42,18.93-12.97,20.15-4.28.61-8.54-.79-11.99-3.94-3.24-2.96-5.39-7.15-6.05-11.81-1.15-8.15,2.59-15.71,8.72-18.81-1.32-3.61-3.64-7.86-6.78-10.3-2.4.16-4.8.41-7.18.74,0,0,0,0-.01,0-3.69.51-6.77,1.14-9.12,1.73,2.02,3.73,3.17,8.25,2.57,12.86,7.19,2.54,12.46,10.68,12.46,20.29,0,11.64-7.74,21.11-17.24,21.11Zm-.07-34.45c-5.1.06-9.4,6.14-9.4,13.34s4.34,13.34,9.47,13.34,9.47-6.11,9.47-13.34-4.3-13.28-9.4-13.34c-.05,0-.09,0-.14,0Zm30.67-5.61c-4.29.63-7.13,5.72-6.33,11.36.41,2.87,1.68,5.41,3.59,7.15,1.7,1.55,3.71,2.26,5.66,1.98,4.31-.61,7.16-5.71,6.36-11.36-.45-3.2-2-6.01-4.25-7.7-1.09-.82-2.84-1.73-4.97-1.44-.02,0-.04,0-.06,0Zm-43.52-13.26c-7.48,0-15.96,2.21-24.69,10.33,8.28-.97,17.5-3.26,25.41-10.33-.24,0-.48,0-.71,0Zm-17.62-31.46c8.85,8.42,24.62,18.46,35.26,20.72-4.61-7.83-15.37-17.7-35.26-20.72Z"/>
        <rect class="cls-3" x="130" y="130" width="130" height="130"/>
      </g>
      <g>
        <path class="cls-2" d="m30.95,189.32C5.88,177.79-.1,154.34,0,140.96c.01-1.65,1.84-2.52,3.24-1.65,14.23,8.88,39.44,20.49,51.45,16.11,3.96-1.45,6.85-5.97,9.92-10.78,6.58-10.29,14-21.88,34.5-7.4,1.5,1.06,1,3.42-.69,4.12-10.81,4.48-11.41,15.02-12.06,26.4-.54,9.44-1.11,19.46-7.57,27.07-6.26,7.38-14.28,9.45-22.25,11.53-10.86,2.82-21.67,5.63-27.93,21.76-.48,1.24-1.93,1.85-3.07,1.16-10.57-6.43-16.01-18.12-18.17-25.93-.47-1.72,1.37-3.11,3.12-2.75,8.16,1.72,16.38-3.45,21.15-7.84,1.11-1.03.7-2.8-.68-3.43h0Z"/>
        <rect class="cls-3" y="130" width="130" height="130"/>
      </g>
      <g>
        <path class="cls-2" d="m160.95,59.32c-25.06-11.53-31.04-34.98-30.95-48.37.01-1.65,1.84-2.52,3.24-1.65,14.23,8.88,39.44,20.49,51.45,16.11,3.96-1.45,6.85-5.97,9.92-10.78,6.58-10.29,14-21.88,34.5-7.4,1.5,1.06,1,3.42-.69,4.12-10.81,4.48-11.41,15.02-12.06,26.4-.54,9.44-1.11,19.46-7.57,27.07-6.26,7.38-14.28,9.45-22.25,11.53-10.86,2.82-21.67,5.63-27.93,21.76-.48,1.24-1.93,1.85-3.07,1.16-10.57-6.43-16.01-18.12-18.17-25.93-.47-1.72,1.37-3.11,3.12-2.75,8.16,1.72,16.38-3.45,21.15-7.84,1.11-1.03.7-2.8-.68-3.43h0Z"/>
        <rect class="cls-3" x="130" width="130" height="130"/>
      </g>
    </g>
  </g>
</svg>