<svg width="1296" height="905" viewBox="0 0 1296 905" fill="none" xmlns="http://www.w3.org/2000/svg">
<path d="M80.3487 86.8957C68.5494 86.8957 58.9811 99.2362 58.9811 114.457C58.9811 129.677 68.5494 142.018 80.3487 142.018C92.1481 142.018 101.717 129.677 101.717 114.457C101.717 99.2366 92.1481 86.8957 80.3487 86.8957ZM80.3487 86.8957C84.5347 76.3963 80.3487 64.8469 73.8081 58.0235M73.8081 58.0235C77.528 56.4714 86.2719 54.0767 97.6162 52.4999M73.8081 58.0235C55.7557 54.8729 30.1162 54.8729 5 86.8957C23.4884 85.6716 53.0872 84.903 73.8081 58.0235ZM97.6162 52.4999C101.986 51.8926 106.741 51.4067 111.744 51.1371M97.6162 52.4999C93.4302 37.5416 71.4533 7.09996 17.0348 5C26.9766 22.3241 74.5929 55.6419 97.6162 52.4999ZM152.558 54.8729C138.878 51.1694 124.506 50.4493 111.744 51.1371M111.744 51.1371C121.791 57.3885 127.093 71.6312 128.488 77.9712M128.488 77.9712C118.188 79.4347 111.264 90.7176 113.023 103.178C114.782 115.635 124.556 124.549 134.857 123.086C145.157 121.622 152.084 110.335 150.325 97.8778C148.566 85.4174 138.789 76.5076 128.488 77.9712Z" stroke="#0A5C26" stroke-width="8.43188" stroke-linecap="round" stroke-linejoin="round"/>
<path fill-rule="evenodd" clip-rule="evenodd" d="M240.382 91.8951C203.398 74.8764 194.574 40.2752 194.719 20.5273C194.734 18.096 197.432 16.8078 199.494 18.096C220.498 31.1943 257.691 48.3337 275.41 41.8612C281.254 39.7277 285.52 33.0539 290.054 25.9612C299.762 10.7779 310.71 -6.32937 340.958 15.0449C343.171 16.6067 342.438 20.0844 339.935 21.123C323.978 27.7406 323.093 43.2942 322.142 60.0796C321.354 74.0069 320.508 88.7876 310.976 100.018C301.735 110.902 289.909 113.97 278.138 117.029C262.109 121.191 246.162 125.329 236.921 149.135C236.211 150.962 234.071 151.863 232.395 150.849C216.803 141.358 208.767 124.105 205.58 112.585C204.88 110.041 207.599 107.988 210.184 108.528C222.228 111.064 234.351 103.44 241.388 96.9509C243.021 95.4374 242.419 92.821 240.391 91.8951H240.382Z" fill="white"/>
<path d="M459.784 86.8957C447.984 86.8957 438.415 99.2362 438.415 114.457C438.415 129.677 447.984 142.018 459.784 142.018C471.582 142.018 481.15 129.677 481.15 114.457C481.15 99.2366 471.582 86.8957 459.784 86.8957ZM459.784 86.8957C463.97 76.3963 459.784 64.8469 453.243 58.0235M453.243 58.0235C456.963 56.4714 465.707 54.0767 477.05 52.4999M453.243 58.0235C435.19 54.8729 409.551 54.8729 384.435 86.8957C402.924 85.6716 432.522 84.903 453.243 58.0235ZM477.05 52.4999C481.42 51.8926 486.176 51.4067 491.178 51.1371M477.05 52.4999C472.864 37.5416 450.888 7.09996 396.469 5C406.412 22.3241 454.027 55.6419 477.05 52.4999ZM531.992 54.8729C518.312 51.1694 503.942 50.4493 491.178 51.1371M491.178 51.1371C501.224 57.3885 506.528 71.6312 507.924 77.9712M507.924 77.9712C497.622 79.4347 490.699 90.7176 492.457 103.178C494.215 115.635 503.99 124.549 514.292 123.086C524.591 121.622 531.518 110.335 529.76 97.8778C528.002 85.4174 518.223 76.5076 507.924 77.9712Z" stroke="#0A5C26" stroke-width="8.43188" stroke-linecap="round" stroke-linejoin="round"/>
<path fill-rule="evenodd" clip-rule="evenodd" d="M619.817 91.8951C582.832 74.8764 574.008 40.2752 574.154 20.5273C574.169 18.096 576.867 16.8078 578.928 18.096C599.932 31.1943 637.125 48.3337 654.845 41.8612C660.688 39.7277 664.955 33.0539 669.489 25.9612C679.196 10.7779 690.145 -6.32937 720.392 15.0449C722.605 16.6067 721.872 20.0844 719.37 21.123C703.412 27.7406 702.527 43.2942 701.576 60.0796C700.788 74.0069 699.943 88.7876 690.41 100.018C681.169 110.902 669.343 113.97 657.573 117.029C641.544 121.191 625.597 125.329 616.355 149.135C615.645 150.962 613.505 151.863 611.83 150.849C596.237 141.358 588.201 124.105 585.014 112.585C584.314 110.041 587.034 107.988 589.618 108.528C601.663 111.064 613.786 103.44 620.822 96.9509C622.456 95.4374 621.853 92.821 619.825 91.8951H619.817Z" fill="white"/>
<path d="M839.218 86.8957C827.418 86.8957 817.85 99.2362 817.85 114.457C817.85 129.677 827.418 142.018 839.218 142.018C851.017 142.018 860.585 129.677 860.585 114.457C860.585 99.2366 851.017 86.8957 839.218 86.8957ZM839.218 86.8957C843.405 76.3963 839.218 64.8469 832.677 58.0235M832.677 58.0235C836.398 56.4714 845.142 54.0767 856.485 52.4999M832.677 58.0235C814.625 54.8729 788.985 54.8729 763.869 86.8957C782.358 85.6716 811.956 84.903 832.677 58.0235ZM856.485 52.4999C860.854 51.8926 865.61 51.4067 870.612 51.1371M856.485 52.4999C852.298 37.5416 830.323 7.09996 775.903 5C785.847 22.3241 833.461 55.6419 856.485 52.4999ZM911.427 54.8729C897.746 51.1694 883.376 50.4493 870.612 51.1371M870.612 51.1371C880.659 57.3885 885.962 71.6312 887.358 77.9712M887.358 77.9712C877.056 79.4347 870.134 90.7176 871.892 103.178C873.65 115.635 883.424 124.549 893.726 123.086C904.026 121.622 910.952 110.335 909.194 97.8778C907.436 85.4174 897.657 76.5076 887.358 77.9712Z" stroke="#0A5C26" stroke-width="8.43188" stroke-linecap="round" stroke-linejoin="round"/>
<path fill-rule="evenodd" clip-rule="evenodd" d="M999.251 91.8951C962.267 74.8764 953.443 40.2752 953.588 20.5273C953.605 18.096 956.301 16.8078 958.363 18.096C979.367 31.1943 1016.56 48.3337 1034.28 41.8612C1040.12 39.7277 1044.39 33.0539 1048.92 25.9612C1058.63 10.7779 1069.58 -6.32937 1099.83 15.0449C1102.04 16.6067 1101.31 20.0844 1098.8 21.123C1082.85 27.7406 1081.96 43.2942 1081.01 60.0796C1080.22 74.0069 1079.38 88.7876 1069.84 100.018C1060.6 110.902 1048.78 113.97 1037.01 117.029C1020.98 121.191 1005.03 125.329 995.79 149.135C995.082 150.962 992.94 151.863 991.264 150.849C975.671 141.358 967.636 124.105 964.449 112.585C963.749 110.041 966.47 107.988 969.052 108.528C981.097 111.064 993.22 103.44 1000.26 96.9509C1001.89 95.4374 1001.29 92.821 999.26 91.8951H999.251Z" fill="white"/>
<path d="M1218.65 86.8957C1206.85 86.8957 1197.28 99.2362 1197.28 114.457C1197.28 129.677 1206.85 142.018 1218.65 142.018C1230.45 142.018 1240.02 129.677 1240.02 114.457C1240.02 99.2366 1230.45 86.8957 1218.65 86.8957ZM1218.65 86.8957C1222.84 76.3963 1218.65 64.8469 1212.11 58.0235M1212.11 58.0235C1215.83 56.4714 1224.58 54.0767 1235.92 52.4999M1212.11 58.0235C1194.06 54.8729 1168.42 54.8729 1143.3 86.8957C1161.79 85.6716 1191.39 84.903 1212.11 58.0235ZM1235.92 52.4999C1240.29 51.8926 1245.04 51.4067 1250.05 51.1371M1235.92 52.4999C1231.73 37.5416 1209.76 7.09996 1155.34 5C1165.28 22.3241 1212.9 55.6419 1235.92 52.4999ZM1290.86 54.8729C1277.18 51.1694 1262.81 50.4493 1250.05 51.1371M1250.05 51.1371C1260.09 57.3885 1265.4 71.6312 1266.79 77.9712M1266.79 77.9712C1256.49 79.4347 1249.57 90.7176 1251.33 103.178C1253.09 115.635 1262.86 124.549 1273.16 123.086C1283.46 121.622 1290.39 110.335 1288.63 97.8778C1286.87 85.4174 1277.09 76.5076 1266.79 77.9712Z" stroke="#0A5C26" stroke-width="8.43188" stroke-linecap="round" stroke-linejoin="round"/>
<path fill-rule="evenodd" clip-rule="evenodd" d="M50.6644 280.326C13.6803 263.309 4.85693 228.706 5.00174 208.959C5.01798 206.528 7.71491 205.24 9.77587 206.528C30.7797 219.627 67.9731 236.765 85.6923 230.294C91.537 228.16 95.8038 221.486 100.336 214.393C110.045 199.209 120.994 182.103 151.24 203.476C153.454 205.038 152.721 208.516 150.217 209.555C134.261 216.172 133.376 231.727 132.426 248.511C131.637 262.438 130.791 277.219 121.26 288.45C112.017 299.334 100.191 302.401 88.4215 305.462C72.3929 309.623 56.4446 313.761 47.2027 337.566C46.4942 339.394 44.3529 340.296 42.6783 339.282C27.0844 329.79 19.0501 312.538 15.862 301.018C15.1615 298.474 17.8827 296.421 20.4669 296.96C32.5105 299.496 44.6345 291.872 51.6707 285.383C53.305 283.87 52.7013 281.254 50.6726 280.326H50.6644Z" fill="white"/>
<path d="M270.067 275.328C258.266 275.328 248.698 287.668 248.698 302.89C248.698 318.11 258.266 330.45 270.067 330.45C281.865 330.45 291.433 318.11 291.433 302.89C291.433 287.668 281.865 275.328 270.067 275.328ZM270.067 275.328C274.253 264.829 270.067 253.279 263.526 246.456M263.526 246.456C267.246 244.904 275.99 242.509 287.333 240.933M263.526 246.456C245.473 243.304 219.834 243.304 194.717 275.328C213.206 274.104 242.804 273.334 263.526 246.456ZM287.333 240.933C291.703 240.326 296.458 239.839 301.461 239.569M287.333 240.933C283.147 225.974 261.171 195.531 206.752 193.432C216.695 210.757 264.31 244.074 287.333 240.933ZM342.275 243.304C328.594 239.603 314.224 238.882 301.461 239.569M301.461 239.569C311.507 245.821 316.811 260.062 318.206 266.403M318.206 266.403C307.905 267.866 300.982 279.15 302.74 291.61C304.498 304.068 314.273 312.981 324.574 311.518C334.874 310.053 341.801 298.767 340.043 286.311C338.285 273.849 328.506 264.94 318.206 266.403Z" stroke="#0A5C26" stroke-width="8.43188" stroke-linecap="round" stroke-linejoin="round"/>
<path fill-rule="evenodd" clip-rule="evenodd" d="M430.099 280.326C393.115 263.309 384.291 228.706 384.437 208.959C384.451 206.528 387.15 205.24 389.211 206.528C410.215 219.627 447.408 236.765 465.128 230.294C470.971 228.16 475.237 221.486 479.772 214.393C489.479 199.209 500.428 182.103 530.675 203.476C532.888 205.038 532.155 208.516 529.652 209.555C513.695 216.172 512.81 231.727 511.859 248.511C511.071 262.438 510.225 277.219 500.693 288.45C491.452 299.334 479.626 302.401 467.855 305.462C451.826 309.623 435.879 313.761 426.638 337.566C425.928 339.394 423.788 340.296 422.112 339.282C406.52 329.79 398.484 312.538 395.297 301.018C394.597 298.474 397.316 296.421 399.901 296.96C411.946 299.496 424.068 291.872 431.105 285.383C432.739 283.87 432.136 281.254 430.108 280.326H430.099Z" fill="white"/>
<path d="M649.501 275.328C637.701 275.328 628.133 287.668 628.133 302.89C628.133 318.11 637.701 330.45 649.501 330.45C661.299 330.45 670.867 318.11 670.867 302.89C670.867 287.668 661.299 275.328 649.501 275.328ZM649.501 275.328C653.688 264.829 649.501 253.279 642.96 246.456M642.96 246.456C646.681 244.904 655.424 242.509 666.767 240.933M642.96 246.456C624.907 243.304 599.268 243.304 574.152 275.328C592.641 274.104 622.239 273.334 642.96 246.456ZM666.767 240.933C671.137 240.326 675.893 239.839 680.895 239.569M666.767 240.933C662.581 225.974 640.605 195.531 586.186 193.432C596.129 210.757 643.744 244.074 666.767 240.933ZM721.71 243.304C708.029 239.603 693.659 238.882 680.895 239.569M680.895 239.569C690.942 245.821 696.245 260.062 697.641 266.403M697.641 266.403C687.339 267.866 680.417 279.15 682.175 291.61C683.933 304.068 693.707 312.981 704.009 311.518C714.308 310.053 721.235 298.767 719.477 286.311C717.719 273.849 707.94 264.94 697.641 266.403Z" stroke="#0A5C26" stroke-width="8.43188" stroke-linecap="round" stroke-linejoin="round"/>
<path fill-rule="evenodd" clip-rule="evenodd" d="M809.534 280.326C772.55 263.309 763.726 228.706 763.871 208.959C763.886 206.528 766.584 205.24 768.646 206.528C789.649 219.627 826.842 236.765 844.562 230.294C850.405 228.16 854.672 221.486 859.206 214.393C868.913 199.209 879.862 182.103 910.109 203.476C912.323 205.038 911.589 208.516 909.087 209.555C893.13 216.172 892.244 231.727 891.294 248.511C890.505 262.438 889.66 277.219 880.128 288.45C870.886 299.334 859.061 302.401 847.29 305.462C831.261 309.623 815.314 313.761 806.073 337.566C805.362 339.394 803.223 340.296 801.547 339.282C785.954 329.79 777.919 312.538 774.731 301.018C774.032 298.474 776.751 296.421 779.335 296.96C791.38 299.496 803.503 291.872 810.539 285.383C812.173 283.87 811.57 281.254 809.542 280.326H809.534Z" fill="white"/>
<path d="M1028.94 275.328C1017.14 275.328 1007.57 287.668 1007.57 302.89C1007.57 318.11 1017.14 330.45 1028.94 330.45C1040.73 330.45 1050.3 318.11 1050.3 302.89C1050.3 287.668 1040.73 275.328 1028.94 275.328ZM1028.94 275.328C1033.12 264.829 1028.94 253.279 1022.39 246.456M1022.39 246.456C1026.12 244.904 1034.86 242.509 1046.2 240.933M1022.39 246.456C1004.34 243.304 978.703 243.304 953.586 275.328C972.075 274.104 1001.67 273.334 1022.39 246.456ZM1046.2 240.933C1050.57 240.326 1055.33 239.839 1060.33 239.569M1046.2 240.933C1042.02 225.974 1020.04 195.531 965.621 193.432C975.564 210.757 1023.18 244.074 1046.2 240.933ZM1101.14 243.304C1087.46 239.603 1073.09 238.882 1060.33 239.569M1060.33 239.569C1070.38 245.821 1075.68 260.062 1077.08 266.403M1077.08 266.403C1066.77 267.866 1059.85 279.15 1061.61 291.61C1063.37 304.068 1073.14 312.981 1083.44 311.518C1093.74 310.053 1100.67 298.767 1098.91 286.311C1097.15 273.849 1087.37 264.94 1077.08 266.403Z" stroke="#0A5C26" stroke-width="8.43188" stroke-linecap="round" stroke-linejoin="round"/>
<path fill-rule="evenodd" clip-rule="evenodd" d="M1188.97 280.326C1151.98 263.309 1143.16 228.706 1143.31 208.959C1143.32 206.528 1146.02 205.24 1148.08 206.528C1169.08 219.627 1206.28 236.765 1224 230.294C1229.84 228.16 1234.11 221.486 1238.64 214.393C1248.35 199.209 1259.3 182.103 1289.54 203.476C1291.76 205.038 1291.03 208.516 1288.52 209.555C1272.56 216.172 1271.68 231.727 1270.73 248.511C1269.94 262.438 1269.09 277.219 1259.56 288.45C1250.32 299.334 1238.49 302.401 1226.72 305.462C1210.7 309.623 1194.75 313.761 1185.51 337.566C1184.8 339.394 1182.66 340.296 1180.98 339.282C1165.39 329.79 1157.35 312.538 1154.17 301.018C1153.47 298.474 1156.19 296.421 1158.77 296.96C1170.81 299.496 1182.94 291.872 1189.97 285.383C1191.61 283.87 1191 281.254 1188.98 280.326H1188.97Z" fill="white"/>
<path d="M80.3488 463.76C68.5495 463.76 58.9812 476.1 58.9812 491.322C58.9812 506.541 68.5495 518.883 80.3488 518.883C92.1482 518.883 101.717 506.541 101.717 491.322C101.717 476.1 92.1482 463.76 80.3488 463.76ZM80.3488 463.76C84.5349 453.26 80.3488 441.71 73.8082 434.887M73.8082 434.887C77.5282 433.336 86.272 430.941 97.6163 429.364M73.8082 434.887C55.7558 431.738 30.1164 431.738 5.00012 463.76C23.4885 462.535 53.0873 461.768 73.8082 434.887ZM97.6163 429.364C101.986 428.757 106.741 428.27 111.744 428.002M97.6163 429.364C93.4303 414.406 71.4534 383.965 17.0349 381.865C26.9768 399.189 74.593 432.505 97.6163 429.364ZM152.558 431.738C138.878 428.034 124.506 427.313 111.744 428.002M111.744 428.002C121.791 434.252 127.093 448.496 128.488 454.835M128.488 454.835C118.188 456.3 111.265 467.582 113.023 480.042C114.782 492.5 124.556 501.412 134.857 499.949C145.157 498.487 152.084 487.198 150.326 474.742C148.567 462.282 138.789 453.372 128.488 454.835Z" stroke="#0A5C26" stroke-width="8.43188" stroke-linecap="round" stroke-linejoin="round"/>
<path fill-rule="evenodd" clip-rule="evenodd" d="M240.382 468.76C203.398 451.74 194.574 417.14 194.719 397.39C194.734 394.96 197.432 393.672 199.494 394.96C220.498 408.058 257.691 425.198 275.41 418.725C281.254 416.592 285.52 409.918 290.054 402.824C299.762 387.643 310.71 370.535 340.958 391.909C343.171 393.471 342.438 396.947 339.935 397.987C323.978 404.604 323.093 420.158 322.142 436.944C321.354 450.871 320.508 465.652 310.976 476.882C301.735 487.767 289.909 490.834 278.138 493.893C262.109 498.054 246.162 502.192 236.921 525.997C236.211 527.825 234.071 528.727 232.395 527.713C216.803 518.221 208.767 500.969 205.58 489.449C204.88 486.905 207.599 484.852 210.184 485.391C222.228 487.927 234.351 480.303 241.388 473.815C243.021 472.301 242.419 469.685 240.391 468.76H240.382Z" fill="white"/>
<path d="M459.784 463.76C447.983 463.76 438.415 476.1 438.415 491.322C438.415 506.541 447.983 518.883 459.784 518.883C471.582 518.883 481.15 506.541 481.15 491.322C481.15 476.1 471.582 463.76 459.784 463.76ZM459.784 463.76C463.97 453.26 459.784 441.71 453.243 434.887M453.243 434.887C456.963 433.336 465.707 430.941 477.05 429.364M453.243 434.887C435.19 431.738 409.551 431.738 384.434 463.76C402.923 462.535 432.521 461.768 453.243 434.887ZM477.05 429.364C481.42 428.757 486.176 428.27 491.178 428.002M477.05 429.364C472.864 414.406 450.888 383.965 396.469 381.865C406.412 399.189 454.027 432.505 477.05 429.364ZM531.992 431.738C518.312 428.034 503.942 427.313 491.178 428.002M491.178 428.002C501.224 434.252 506.528 448.496 507.923 454.835M507.923 454.835C497.622 456.3 490.699 467.582 492.457 480.042C494.215 492.5 503.99 501.412 514.292 499.949C524.591 498.487 531.518 487.198 529.76 474.742C528.002 462.282 518.223 453.372 507.923 454.835Z" stroke="#0A5C26" stroke-width="8.43188" stroke-linecap="round" stroke-linejoin="round"/>
<path fill-rule="evenodd" clip-rule="evenodd" d="M619.817 468.76C582.832 451.74 574.008 417.14 574.154 397.39C574.169 394.96 576.867 393.672 578.928 394.96C599.932 408.058 637.125 425.198 654.845 418.725C660.688 416.592 664.955 409.918 669.489 402.824C679.196 387.643 690.145 370.535 720.392 391.909C722.605 393.471 721.872 396.947 719.37 397.987C703.412 404.604 702.527 420.158 701.576 436.944C700.788 450.871 699.943 465.652 690.41 476.882C681.169 487.767 669.343 490.834 657.573 493.893C641.544 498.054 625.597 502.192 616.355 525.997C615.645 527.825 613.505 528.727 611.83 527.713C596.237 518.221 588.201 500.969 585.014 489.449C584.314 486.905 587.034 484.852 589.618 485.391C601.663 487.927 613.786 480.303 620.822 473.815C622.456 472.301 621.853 469.685 619.825 468.76H619.817Z" fill="white"/>
<path d="M839.218 463.76C827.418 463.76 817.85 476.1 817.85 491.322C817.85 506.541 827.418 518.883 839.218 518.883C851.017 518.883 860.585 506.541 860.585 491.322C860.585 476.1 851.017 463.76 839.218 463.76ZM839.218 463.76C843.405 453.26 839.218 441.71 832.677 434.887M832.677 434.887C836.398 433.336 845.142 430.941 856.485 429.364M832.677 434.887C814.625 431.738 788.985 431.738 763.869 463.76C782.358 462.535 811.956 461.768 832.677 434.887ZM856.485 429.364C860.854 428.757 865.61 428.27 870.612 428.002M856.485 429.364C852.298 414.406 830.323 383.965 775.903 381.865C785.847 399.189 833.461 432.505 856.485 429.364ZM911.427 431.738C897.746 428.034 883.376 427.313 870.612 428.002M870.612 428.002C880.659 434.252 885.962 448.496 887.358 454.835M887.358 454.835C877.056 456.3 870.134 467.582 871.892 480.042C873.65 492.5 883.424 501.412 893.726 499.949C904.026 498.487 910.952 487.198 909.194 474.742C907.436 462.282 897.657 453.372 887.358 454.835Z" stroke="#0A5C26" stroke-width="8.43188" stroke-linecap="round" stroke-linejoin="round"/>
<path fill-rule="evenodd" clip-rule="evenodd" d="M999.251 468.76C962.267 451.74 953.443 417.14 953.588 397.39C953.605 394.96 956.301 393.672 958.363 394.96C979.367 408.058 1016.56 425.198 1034.28 418.725C1040.12 416.592 1044.39 409.918 1048.92 402.824C1058.63 387.643 1069.58 370.535 1099.83 391.909C1102.04 393.471 1101.31 396.947 1098.8 397.987C1082.85 404.604 1081.96 420.158 1081.01 436.944C1080.22 450.871 1079.38 465.652 1069.84 476.882C1060.6 487.767 1048.78 490.834 1037.01 493.893C1020.98 498.054 1005.03 502.192 995.79 525.997C995.082 527.825 992.94 528.727 991.264 527.713C975.671 518.221 967.636 500.969 964.449 489.449C963.749 486.905 966.47 484.852 969.052 485.391C981.097 487.927 993.22 480.303 1000.26 473.815C1001.89 472.301 1001.29 469.685 999.26 468.76H999.251Z" fill="white"/>
<path d="M1218.65 463.76C1206.85 463.76 1197.28 476.1 1197.28 491.322C1197.28 506.541 1206.85 518.883 1218.65 518.883C1230.45 518.883 1240.02 506.541 1240.02 491.322C1240.02 476.1 1230.45 463.76 1218.65 463.76ZM1218.65 463.76C1222.84 453.26 1218.65 441.71 1212.11 434.887M1212.11 434.887C1215.83 433.336 1224.58 430.941 1235.92 429.364M1212.11 434.887C1194.06 431.738 1168.42 431.738 1143.3 463.76C1161.79 462.535 1191.39 461.768 1212.11 434.887ZM1235.92 429.364C1240.29 428.757 1245.04 428.27 1250.05 428.002M1235.92 429.364C1231.73 414.406 1209.76 383.965 1155.34 381.865C1165.28 399.189 1212.9 432.505 1235.92 429.364ZM1290.86 431.738C1277.18 428.034 1262.81 427.313 1250.05 428.002M1250.05 428.002C1260.09 434.252 1265.4 448.496 1266.79 454.835M1266.79 454.835C1256.49 456.3 1249.57 467.582 1251.33 480.042C1253.09 492.5 1262.86 501.412 1273.16 499.949C1283.46 498.487 1290.39 487.198 1288.63 474.742C1286.87 462.282 1277.09 453.372 1266.79 454.835Z" stroke="#0A5C26" stroke-width="8.43188" stroke-linecap="round" stroke-linejoin="round"/>
<path fill-rule="evenodd" clip-rule="evenodd" d="M50.6644 657.191C13.6803 640.171 4.85693 605.571 5.00174 585.824C5.01798 583.391 7.71491 582.103 9.77587 583.391C30.7797 596.49 67.9731 613.63 85.6923 607.156C91.537 605.023 95.8038 598.349 100.336 591.258C110.045 576.074 120.994 558.966 151.24 580.341C153.454 581.903 152.721 585.381 150.217 586.418C134.261 593.037 133.376 608.59 132.426 625.376C131.637 639.303 130.791 654.084 121.26 665.313C112.017 676.199 100.191 679.266 88.4215 682.325C72.3929 686.488 56.4446 690.626 47.2027 714.431C46.4942 716.259 44.3529 717.159 42.6783 716.145C27.0844 706.653 19.0501 689.401 15.862 677.881C15.1615 675.337 17.8827 673.283 20.4669 673.823C32.5105 676.359 44.6345 668.736 51.6707 662.246C53.305 660.733 52.7013 658.117 50.6726 657.191H50.6644Z" fill="white"/>
<path d="M270.067 652.192C258.266 652.192 248.698 664.532 248.698 679.753C248.698 694.973 258.266 707.315 270.067 707.315C281.865 707.315 291.433 694.973 291.433 679.753C291.433 664.534 281.865 652.192 270.067 652.192ZM270.067 652.192C274.253 641.692 270.067 630.144 263.526 623.321M263.526 623.321C267.246 621.767 275.99 619.373 287.333 617.796M263.526 623.321C245.473 620.169 219.834 620.169 194.717 652.192C213.206 650.969 242.804 650.2 263.526 623.321ZM287.333 617.796C291.703 617.189 296.458 616.704 301.461 616.434M287.333 617.796C283.147 602.838 261.171 572.396 206.752 570.297C216.695 587.62 264.31 620.939 287.333 617.796ZM342.275 620.169C328.594 616.466 314.224 615.745 301.461 616.434M301.461 616.434C311.507 622.684 316.811 636.928 318.206 643.268M318.206 643.268C307.905 644.731 300.982 656.013 302.74 668.473C304.498 680.932 314.273 689.846 324.574 688.381C334.874 686.918 341.801 675.632 340.043 663.174C338.285 650.714 328.506 641.803 318.206 643.268Z" stroke="#0A5C26" stroke-width="8.43188" stroke-linecap="round" stroke-linejoin="round"/>
<path fill-rule="evenodd" clip-rule="evenodd" d="M430.099 657.191C393.115 640.171 384.291 605.571 384.437 585.824C384.451 583.391 387.15 582.103 389.211 583.391C410.215 596.49 447.408 613.63 465.128 607.156C470.971 605.023 475.237 598.349 479.772 591.258C489.479 576.074 500.428 558.966 530.675 580.341C532.888 581.903 532.155 585.381 529.652 586.418C513.695 593.037 512.81 608.59 511.859 625.376C511.071 639.303 510.225 654.084 500.693 665.313C491.452 676.199 479.626 679.266 467.855 682.325C451.826 686.488 435.879 690.626 426.638 714.431C425.928 716.259 423.788 717.159 422.112 716.145C406.52 706.653 398.484 689.401 395.297 677.881C394.597 675.337 397.316 673.283 399.901 673.823C411.946 676.359 424.068 668.736 431.105 662.246C432.739 660.733 432.136 658.117 430.108 657.191H430.099Z" fill="white"/>
<path d="M649.501 652.192C637.701 652.192 628.132 664.532 628.132 679.753C628.132 694.973 637.701 707.315 649.501 707.315C661.299 707.315 670.867 694.973 670.867 679.753C670.867 664.534 661.299 652.192 649.501 652.192ZM649.501 652.192C653.687 641.692 649.501 630.144 642.96 623.321M642.96 623.321C646.68 621.767 655.424 619.373 666.767 617.796M642.96 623.321C624.907 620.169 599.268 620.169 574.152 652.192C592.641 650.969 622.239 650.2 642.96 623.321ZM666.767 617.796C671.137 617.189 675.893 616.704 680.895 616.434M666.767 617.796C662.581 602.838 640.605 572.396 586.186 570.297C596.129 587.62 643.744 620.939 666.767 617.796ZM721.709 620.169C708.029 616.466 693.659 615.745 680.895 616.434M680.895 616.434C690.942 622.684 696.245 636.928 697.641 643.268M697.641 643.268C687.339 644.731 680.416 656.013 682.174 668.473C683.933 680.932 693.707 689.846 704.009 688.381C714.308 686.918 721.235 675.632 719.477 663.174C717.719 650.714 707.94 641.803 697.641 643.268Z" stroke="#0A5C26" stroke-width="8.43188" stroke-linecap="round" stroke-linejoin="round"/>
<path fill-rule="evenodd" clip-rule="evenodd" d="M809.534 657.191C772.55 640.171 763.726 605.571 763.871 585.824C763.886 583.391 766.584 582.103 768.646 583.391C789.649 596.49 826.842 613.63 844.562 607.156C850.405 605.023 854.672 598.349 859.206 591.258C868.913 576.074 879.862 558.966 910.109 580.341C912.323 581.903 911.589 585.381 909.087 586.418C893.13 593.037 892.244 608.59 891.294 625.376C890.505 639.303 889.66 654.084 880.128 665.313C870.886 676.199 859.061 679.266 847.29 682.325C831.261 686.488 815.314 690.626 806.073 714.431C805.362 716.259 803.223 717.159 801.547 716.145C785.954 706.653 777.919 689.401 774.731 677.881C774.032 675.337 776.751 673.283 779.335 673.823C791.38 676.359 803.503 668.736 810.539 662.246C812.173 660.733 811.57 658.117 809.542 657.191H809.534Z" fill="white"/>
<path d="M1028.94 652.192C1017.13 652.192 1007.57 664.532 1007.57 679.753C1007.57 694.973 1017.13 707.315 1028.94 707.315C1040.73 707.315 1050.3 694.973 1050.3 679.753C1050.3 664.534 1040.73 652.192 1028.94 652.192ZM1028.94 652.192C1033.12 641.692 1028.94 630.144 1022.39 623.321M1022.39 623.321C1026.11 621.767 1034.86 619.373 1046.2 617.796M1022.39 623.321C1004.34 620.169 978.703 620.169 953.586 652.192C972.075 650.969 1001.67 650.2 1022.39 623.321ZM1046.2 617.796C1050.57 617.189 1055.33 616.704 1060.33 616.434M1046.2 617.796C1042.02 602.838 1020.04 572.396 965.62 570.297C975.564 587.62 1023.18 620.939 1046.2 617.796ZM1101.14 620.169C1087.46 616.466 1073.09 615.745 1060.33 616.434M1060.33 616.434C1070.38 622.684 1075.68 636.928 1077.08 643.268M1077.08 643.268C1066.77 644.731 1059.85 656.013 1061.61 668.473C1063.37 680.932 1073.14 689.846 1083.44 688.381C1093.74 686.918 1100.67 675.632 1098.91 663.174C1097.15 650.714 1087.37 641.803 1077.08 643.268Z" stroke="#0A5C26" stroke-width="8.43188" stroke-linecap="round" stroke-linejoin="round"/>
<path fill-rule="evenodd" clip-rule="evenodd" d="M1188.97 657.191C1151.98 640.171 1143.16 605.571 1143.31 585.824C1143.32 583.391 1146.02 582.103 1148.08 583.391C1169.08 596.49 1206.28 613.63 1224 607.156C1229.84 605.023 1234.11 598.349 1238.64 591.258C1248.35 576.074 1259.3 558.966 1289.54 580.341C1291.76 581.903 1291.03 585.381 1288.52 586.418C1272.56 593.037 1271.68 608.59 1270.73 625.376C1269.94 639.303 1269.09 654.084 1259.56 665.313C1250.32 676.199 1238.49 679.266 1226.72 682.325C1210.7 686.488 1194.75 690.626 1185.51 714.431C1184.8 716.259 1182.66 717.159 1180.98 716.145C1165.39 706.653 1157.35 689.401 1154.17 677.881C1153.47 675.337 1156.19 673.283 1158.77 673.823C1170.81 676.359 1182.94 668.736 1189.97 662.246C1191.61 660.733 1191 658.117 1188.98 657.191H1188.97Z" fill="white"/>
<path d="M80.3488 840.625C68.5495 840.625 58.9812 852.965 58.9812 868.185C58.9812 883.406 68.5495 895.747 80.3488 895.747C92.1482 895.747 101.717 883.406 101.717 868.185C101.717 852.965 92.1482 840.625 80.3488 840.625ZM80.3488 840.625C84.5349 830.125 80.3488 818.576 73.8082 811.752M73.8082 811.752C77.5282 810.201 86.272 807.804 97.6163 806.229M73.8082 811.752C55.7558 808.601 30.1164 808.601 5.00012 840.625C23.4885 839.4 53.0873 838.631 73.8082 811.752ZM97.6163 806.229C101.986 805.62 106.741 805.135 111.744 804.866M97.6163 806.229C93.4303 791.269 71.4534 760.828 17.0349 758.729C26.9768 776.052 74.593 809.37 97.6163 806.229ZM152.558 808.601C138.878 804.897 124.506 804.178 111.744 804.866M111.744 804.866C121.791 811.118 127.093 825.359 128.488 831.7M128.488 831.7C118.188 833.163 111.265 844.447 113.023 856.907C114.782 869.363 124.556 878.278 134.857 876.815C145.157 875.35 152.084 864.064 150.326 851.606C148.567 839.145 138.789 830.235 128.488 831.7Z" stroke="#0A5C26" stroke-width="8.43188" stroke-linecap="round" stroke-linejoin="round"/>
<path fill-rule="evenodd" clip-rule="evenodd" d="M240.382 845.622C203.398 828.604 194.574 794.002 194.72 774.254C194.734 771.824 197.432 770.536 199.494 771.824C220.498 784.921 257.691 802.061 275.41 795.589C281.254 793.456 285.52 786.78 290.055 779.689C299.762 764.505 310.711 747.397 340.958 768.772C343.171 770.334 342.438 773.812 339.935 774.851C323.978 781.468 323.093 797.02 322.142 813.806C321.354 827.734 320.508 842.515 310.976 853.746C301.735 864.629 289.909 867.696 278.138 870.755C262.109 874.918 246.162 879.056 236.921 902.862C236.211 904.689 234.071 905.591 232.395 904.575C216.803 895.085 208.767 877.832 205.58 866.312C204.88 863.767 207.599 861.716 210.184 862.254C222.229 864.79 234.351 857.167 241.388 850.679C243.022 849.165 242.419 846.547 240.391 845.622H240.382Z" fill="white"/>
<path d="M459.784 840.625C447.983 840.625 438.415 852.965 438.415 868.185C438.415 883.406 447.983 895.747 459.784 895.747C471.582 895.747 481.15 883.406 481.15 868.185C481.15 852.965 471.582 840.625 459.784 840.625ZM459.784 840.625C463.97 830.125 459.784 818.576 453.243 811.752M453.243 811.752C456.963 810.201 465.707 807.804 477.05 806.229M453.243 811.752C435.19 808.601 409.551 808.601 384.434 840.625C402.923 839.4 432.521 838.631 453.243 811.752ZM477.05 806.229C481.42 805.62 486.176 805.135 491.178 804.866M477.05 806.229C472.864 791.269 450.888 760.828 396.469 758.729C406.412 776.052 454.027 809.37 477.05 806.229ZM531.992 808.601C518.312 804.897 503.942 804.178 491.178 804.866M491.178 804.866C501.224 811.118 506.528 825.359 507.923 831.7M507.923 831.7C497.622 833.163 490.699 844.447 492.457 856.907C494.215 869.363 503.99 878.278 514.292 876.815C524.591 875.35 531.518 864.064 529.76 851.606C528.002 839.145 518.223 830.235 507.923 831.7Z" stroke="#0A5C26" stroke-width="8.43188" stroke-linecap="round" stroke-linejoin="round"/>
<path fill-rule="evenodd" clip-rule="evenodd" d="M619.817 845.622C582.832 828.604 574.008 794.002 574.154 774.254C574.169 771.824 576.867 770.536 578.928 771.824C599.932 784.921 637.125 802.061 654.845 795.589C660.688 793.456 664.955 786.78 669.489 779.689C679.196 764.505 690.145 747.397 720.392 768.772C722.605 770.334 721.872 773.812 719.37 774.851C703.412 781.468 702.527 797.02 701.576 813.806C700.788 827.734 699.943 842.515 690.41 853.746C681.169 864.629 669.343 867.696 657.573 870.755C641.544 874.918 625.597 879.056 616.355 902.862C615.645 904.689 613.505 905.591 611.83 904.575C596.237 895.085 588.201 877.832 585.014 866.312C584.314 863.767 587.034 861.716 589.618 862.254C601.663 864.79 613.786 857.167 620.822 850.679C622.456 849.165 621.853 846.547 619.825 845.622H619.817Z" fill="white"/>
<path d="M839.218 840.625C827.418 840.625 817.85 852.965 817.85 868.185C817.85 883.406 827.418 895.747 839.218 895.747C851.017 895.747 860.585 883.406 860.585 868.185C860.585 852.965 851.017 840.625 839.218 840.625ZM839.218 840.625C843.405 830.125 839.218 818.576 832.677 811.752M832.677 811.752C836.398 810.201 845.142 807.804 856.485 806.229M832.677 811.752C814.625 808.601 788.985 808.601 763.869 840.625C782.358 839.4 811.956 838.631 832.677 811.752ZM856.485 806.229C860.854 805.62 865.61 805.135 870.612 804.866M856.485 806.229C852.298 791.269 830.323 760.828 775.903 758.729C785.847 776.052 833.461 809.37 856.485 806.229ZM911.427 808.601C897.746 804.897 883.376 804.178 870.612 804.866M870.612 804.866C880.659 811.118 885.962 825.359 887.358 831.7M887.358 831.7C877.056 833.163 870.134 844.447 871.892 856.907C873.65 869.363 883.424 878.278 893.726 876.815C904.026 875.35 910.952 864.064 909.194 851.606C907.436 839.145 897.657 830.235 887.358 831.7Z" stroke="#0A5C26" stroke-width="8.43188" stroke-linecap="round" stroke-linejoin="round"/>
<path fill-rule="evenodd" clip-rule="evenodd" d="M999.251 845.622C962.267 828.604 953.443 794.002 953.588 774.254C953.605 771.824 956.301 770.536 958.363 771.824C979.367 784.921 1016.56 802.061 1034.28 795.589C1040.12 793.456 1044.39 786.78 1048.92 779.689C1058.63 764.505 1069.58 747.397 1099.83 768.772C1102.04 770.334 1101.31 773.812 1098.8 774.851C1082.85 781.468 1081.96 797.02 1081.01 813.806C1080.22 827.734 1079.38 842.515 1069.84 853.746C1060.6 864.629 1048.78 867.696 1037.01 870.755C1020.98 874.918 1005.03 879.056 995.79 902.862C995.082 904.689 992.94 905.591 991.264 904.575C975.671 895.085 967.636 877.832 964.449 866.312C963.749 863.767 966.47 861.716 969.052 862.254C981.097 864.79 993.22 857.167 1000.26 850.679C1001.89 849.165 1001.29 846.547 999.26 845.622H999.251Z" fill="white"/>
<path d="M1218.65 840.625C1206.85 840.625 1197.28 852.965 1197.28 868.185C1197.28 883.406 1206.85 895.747 1218.65 895.747C1230.45 895.747 1240.02 883.406 1240.02 868.185C1240.02 852.965 1230.45 840.625 1218.65 840.625ZM1218.65 840.625C1222.84 830.125 1218.65 818.576 1212.11 811.752M1212.11 811.752C1215.83 810.201 1224.58 807.804 1235.92 806.229M1212.11 811.752C1194.06 808.601 1168.42 808.601 1143.3 840.625C1161.79 839.4 1191.39 838.631 1212.11 811.752ZM1235.92 806.229C1240.29 805.62 1245.04 805.135 1250.05 804.866M1235.92 806.229C1231.73 791.269 1209.76 760.828 1155.34 758.729C1165.28 776.052 1212.9 809.37 1235.92 806.229ZM1290.86 808.601C1277.18 804.897 1262.81 804.178 1250.05 804.866M1250.05 804.866C1260.09 811.118 1265.4 825.359 1266.79 831.7M1266.79 831.7C1256.49 833.163 1249.57 844.447 1251.33 856.907C1253.09 869.363 1262.86 878.278 1273.16 876.815C1283.46 875.35 1290.39 864.064 1288.63 851.606C1286.87 839.145 1277.09 830.235 1266.79 831.7Z" stroke="#0A5C26" stroke-width="8.43188" stroke-linecap="round" stroke-linejoin="round"/>
</svg>
